<!-- Generated by IcoMoon.io -->
<svg version="1.1" xmlns="http://www.w3.org/2000/svg" width="1024" height="1024" viewBox="0 0 1024 1024">
<title>cancel</title>
<g id="icomoon-ignore">
</g>
<path fill="none" stroke="#000" stroke-width="60.2353" stroke-miterlimit="4" stroke-linecap="butt" stroke-linejoin="miter" d="M993.882 512c0 266.136-215.746 481.882-481.882 481.882s-481.882-215.746-481.882-481.882c0-266.136 215.746-481.882 481.882-481.882s481.882 215.746 481.882 481.882z"></path>
<path fill="#000" d="M424.915 318.943l268.881 169.187c14.078 8.858 18.31 27.452 9.451 41.531-2.403 3.819-5.633 7.049-9.451 9.451l-268.881 169.187c-14.078 8.858-32.672 4.627-41.531-9.451-3.023-4.804-4.626-10.364-4.626-16.040v-338.373c0-16.634 13.484-30.118 30.118-30.118 5.676 0 11.236 1.604 16.040 4.626z"></path>
</svg>
