<?xml version="1.0" encoding="UTF-8"?><!DOCTYPE svg PUBLIC "-//W3C//DTD SVG 1.1//EN" "http://www.w3.org/Graphics/SVG/1.1/DTD/svg11.dtd"><svg xmlns="http://www.w3.org/2000/svg"><symbol id="icon-icon-arrow" viewBox="-281 404.9 32 32"><path d="M-272.4 436.9l14.8-16-14.8-16v32z"/></symbol><symbol id="icon-icon-medal" viewBox="678.7 150.8 338.3 505.8"><path fill="#DF4835" d="M1015.8 150.8v138.5l-168 130.5-168-130.5V150.8z"/><path opacity=".2" fill="#FFF" d="M1015.8 150.8v138.5l-168 130.5v-269z"/><path fill="#FFEA92" d="M864.4 322.7l16.1 9.3c5 2.9 10.8 4.4 16.6 4.4h18.6c11.9 0 22.8 6.3 28.8 16.6l9.3 16.1c2.9 5 7.1 9.2 12.2 12.2l16.1 9.3c10.3 5.9 16.6 16.9 16.6 28.8V438c0 5.8 1.5 11.6 4.4 16.6l9.3 16.1c5.9 10.3 5.9 22.9 0 33.2l-9.3 16.1c-2.9 5-4.4 10.8-4.4 16.6v18.6c0 11.9-6.3 22.8-16.6 28.8l-16.1 9.3c-5 2.9-9.2 7.1-12.2 12.2l-9.3 16.1c-5.9 10.3-16.9 16.6-28.8 16.6h-18.6c-5.8 0-11.6 1.5-16.6 4.4l-16.1 9.3a33.35 33.35 0 0 1-33.2 0l-16.1-9.3c-5-2.9-10.8-4.4-16.6-4.4h-18.6c-11.9 0-22.8-6.3-28.8-16.6l-9.3-16.1c-2.9-5-7.1-9.2-12.2-12.2l-16.1-9.3c-10.3-5.9-16.6-16.9-16.6-28.8v-18.6c0-5.8-1.5-11.6-4.4-16.6l-9.3-16.1a33.35 33.35 0 0 1 0-33.2l9.3-16.1c2.9-5 4.4-10.8 4.4-16.6v-18.6c0-11.9 6.3-22.8 16.6-28.8l16.1-9.3c5-2.9 9.2-7.1 12.2-12.2l9.3-16.1c5.9-10.3 16.9-16.6 28.8-16.6h18.6c5.8 0 11.6-1.5 16.6-4.4l16.1-9.3c10.3-6 23-6 33.2 0z"/><path opacity=".3" fill="#DF4835" d="M864.4 322.7l16.1 9.3c5 2.9 10.8 4.4 16.6 4.4h18.6c11.9 0 22.8 6.3 28.8 16.6l9.3 16.1c2.9 5 7.1 9.2 12.2 12.2l16.1 9.3c10.3 5.9 16.6 16.9 16.6 28.8V438c0 5.8 1.5 11.6 4.4 16.6l9.3 16.1c5.9 10.3 5.9 22.9 0 33.2l-9.3 16.1c-2.9 5-4.4 10.8-4.4 16.6v18.6c0 11.9-6.3 22.8-16.6 28.8l-16.1 9.3c-5 2.9-9.2 7.1-12.2 12.2l-9.3 16.1c-5.9 10.3-16.9 16.6-28.8 16.6h-18.6c-5.8 0-11.6 1.5-16.6 4.4l-16.1 9.3a33.35 33.35 0 0 1-33.2 0l-16.1-9.3c-5-2.9-10.8-4.4-16.6-4.4h-18.6c-11.9 0-22.8-6.3-28.8-16.6l-9.3-16.1c-2.9-5-7.1-9.2-12.2-12.2l-16.1-9.3c-10.3-5.9-16.6-16.9-16.6-28.8v-18.6c0-5.8-1.5-11.6-4.4-16.6l-9.3-16.1a33.35 33.35 0 0 1 0-33.2l9.3-16.1c2.9-5 4.4-10.8 4.4-16.6v-18.6c0-11.9 6.3-22.8 16.6-28.8l16.1-9.3c5-2.9 9.2-7.1 12.2-12.2l9.3-16.1c5.9-10.3 16.9-16.6 28.8-16.6h18.6c5.8 0 11.6-1.5 16.6-4.4l16.1-9.3c10.3-6 23-6 33.2 0z"/><circle fill="#FFEA92" cx="847.8" cy="487.4" r="135.9"/><path opacity=".25" fill="#FFF" d="M751.7 583.5c-53.1-53.1-53.1-139.1 0-192.2s139.1-53.1 192.2 0"/></symbol><symbol id="icon-ic_arrow_downcopy7" viewBox="0 0 54 32"><path d="M47.773.778l6.391 6.111L27.05 32.814-.073 6.889 6.318.778 27.05 20.592 47.773.778z"/></symbol><symbol id="icon-ic_book" viewBox="0 0 29 32"><path d="M23.066 16.094l-1.951-1.988-8.984 9.161-3.903-3.981-1.951 1.991 5.854 5.97 10.935-11.151zm2.705-12.678H23.93V.812h-3.68v2.604H9.204V.812H5.522v2.604H3.681C1.636 3.416.016 5.105.016 7.169l-.02 21.952c0 2.067 1.64 3.756 3.684 3.756h22.089c2.025 0 3.684-1.689 3.684-3.756V7.169c0-2.064-1.659-3.753-3.684-3.753zm1.152 26.934H2.455V10.772h24.468V30.35z"/></symbol></svg>