<!-- Generated by IcoMoon.io -->
<svg version="1.1" xmlns="http://www.w3.org/2000/svg" width="32" height="32" viewBox="0 0 32 32">
<title>ic_account</title>
<path d="M16.070 0c-8.881 0-16.070 7.189-16.070 15.93s7.189 15.93 15.93 15.93 15.93-7.189 15.93-15.93-7.048-15.93-15.789-15.93zM16.070 4.793c2.678 0 4.793 2.115 4.793 4.793s-2.115 4.793-4.793 4.793-4.793-2.115-4.793-4.793 1.974-4.793 4.793-4.793zM16.070 27.489c-3.947 0-7.471-2.115-9.586-5.075 0-3.242 6.344-4.934 9.586-4.934s9.586 1.692 9.586 4.934c-2.115 2.96-5.639 5.075-9.586 5.075z"></path>
</svg>
