<!-- Generated by IcoMoon.io -->
<svg version="1.1" xmlns="http://www.w3.org/2000/svg" width="32" height="32" viewBox="0 0 32 32">
<title>ic_call</title>
<path d="M16.070 0c-8.881 0-16.070 7.189-16.070 15.93 0 8.881 7.189 15.93 15.93 15.93 8.881 0 15.93-7.189 15.93-15.93 0.141-8.74-7.048-15.93-15.789-15.93zM24.67 23.401c0 0.564-0.423 0.987-0.987 0.987-9.022 0-16.352-7.33-16.352-16.352 0-0.564 0.423-0.987 0.987-0.987h3.383c0.564 0 0.987 0.423 0.987 0.987 0 1.269 0.141 2.396 0.564 3.383 0.141 0.282 0 0.705-0.282 0.987l-2.115 2.115c1.41 2.678 3.665 4.934 6.344 6.344l2.115-2.115c0.282-0.282 0.705-0.282 0.987-0.282 1.128 0.423 2.256 0.564 3.383 0.564 0.564 0 0.987 0.423 0.987 0.987v3.383z"></path>
</svg>
