<!-- Generated by IcoMoon.io -->
<svg version="1.1" xmlns="http://www.w3.org/2000/svg" width="32" height="32" viewBox="0 0 32 32">
<title>ic_confirmation02</title>
<path d="M15.93 0c-8.74 0-15.93 7.189-15.93 15.93s7.189 15.93 15.93 15.93c8.881 0 15.93-7.189 15.93-15.93s-7.048-15.93-15.93-15.93zM12.405 24.952c-0.987 0-1.833-0.846-1.833-1.833s0.846-1.833 1.833-1.833c0.987 0 1.833 0.846 1.833 1.833s-0.846 1.833-1.833 1.833zM21.427 24.952c-0.987 0-1.833-0.846-1.833-1.833s0.846-1.833 1.833-1.833c0.987 0 1.833 0.846 1.833 1.833s-0.846 1.833-1.833 1.833zM24.952 10.15l-3.242 5.78c-0.282 0.564-0.846 0.987-1.551 0.987h-6.767l-0.846 1.41v0.141c0 0.141 0.141 0.282 0.282 0.282h10.432v1.833h-10.855c-0.987 0-1.833-0.846-1.833-1.833 0-0.282 0.141-0.564 0.282-0.846l1.269-2.255-3.242-6.908h-1.833v-1.692h2.96l0.846 1.833h13.251c0.564 0 0.846 0.423 0.846 0.846 0 0.141 0 0.282 0 0.423z"></path>
</svg>
