<!-- Generated by IcoMoon.io -->
<svg version="1.1" xmlns="http://www.w3.org/2000/svg" width="32" height="32" viewBox="0 0 32 32">
<title>ic_contact</title>
<path d="M6.485 13.815c2.537 5.075 6.626 9.163 11.7 11.7l3.947-3.947c0.423-0.423 1.128-0.705 1.833-0.423 1.974 0.705 4.088 0.987 6.344 0.987 0.987 0 1.833 0.846 1.833 1.833v6.203c0 0.987-0.846 1.833-1.833 1.833-16.775 0-30.308-13.533-30.308-30.167 0-0.987 0.846-1.833 1.833-1.833h6.203c0.987 0 1.833 0.846 1.833 1.833 0 2.255 0.423 4.37 0.987 6.344 0.141 0.564 0 1.269-0.423 1.833-0.141 0-3.947 3.806-3.947 3.806z"></path>
</svg>
