<!-- Generated by IcoMoon.io -->
<svg version="1.1" xmlns="http://www.w3.org/2000/svg" width="32" height="32" viewBox="0 0 32 32">
<title>ic_facebook</title>
<path d="M16.070 0c-8.881 0-16.070 7.189-16.070 15.93 0 8.881 7.189 15.93 15.93 15.93 8.881 0 15.93-7.189 15.93-15.93 0.141-8.74-7.048-15.93-15.789-15.93zM20.018 16.070h-2.678c0 4.229 0 9.445 0 9.445h-3.806c0 0 0-5.216 0-9.445h-1.974v-3.383h1.833v-2.255c0-1.551 0.705-3.947 3.947-3.947h2.96v3.242c0 0-1.833 0-2.115 0s-0.846 0.141-0.846 0.846v2.115h2.96l-0.282 3.383z"></path>
</svg>
