<!-- Generated by IcoMoon.io -->
<svg version="1.1" xmlns="http://www.w3.org/2000/svg" width="32" height="32" viewBox="0 0 32 32">
<title>ic_help</title>
<path fill="#fff" d="M29.885 15.93c0 7.708-6.248 13.956-13.956 13.956s-13.956-6.248-13.956-13.956c0-7.708 6.248-13.956 13.956-13.956s13.956 6.248 13.956 13.956z"></path>
<path fill="#363636" d="M16.070 0c-8.881 0-16.070 7.189-16.070 15.93s7.189 15.93 15.93 15.93 15.93-7.189 15.93-15.93-7.048-15.93-15.789-15.93zM17.621 27.207h-3.242v-3.242h3.242v3.242zM20.863 14.802l-1.41 1.41c-1.128 1.128-1.833 2.115-1.833 4.511h-3.242v-0.846c0-1.692 0.705-3.383 1.833-4.511l2.115-1.974c0.564-0.564 0.987-1.41 0.987-2.255 0-1.692-1.41-3.242-3.242-3.242s-3.242 1.41-3.242 3.242h-3.242c0-3.524 2.819-6.344 6.344-6.344s6.344 2.819 6.344 6.344c0.141 1.41-0.423 2.819-1.41 3.665z"></path>
</svg>
