<!-- Generated by IcoMoon.io -->
<svg version="1.1" xmlns="http://www.w3.org/2000/svg" width="32" height="32" viewBox="0 0 32 32">
<title>ic_mail</title>
<path d="M9.445 10.855v1.692l6.485 4.088 6.626-4.229v-1.551l-6.485 4.088-6.626-4.088z"></path>
<path d="M16.070 0c-8.881 0-16.070 7.189-16.070 15.93 0 8.881 7.189 15.93 15.93 15.93s15.93-7.189 15.93-15.93c0.141-8.74-7.048-15.93-15.789-15.93zM24.106 20.581c0 0.846-0.705 1.692-1.692 1.692h-12.969c-0.846 0-1.692-0.705-1.692-1.692v-9.727c0-0.846 0.705-1.692 1.551-1.692h13.251c0.846 0 1.692 0.705 1.692 1.692v9.727z"></path>
</svg>
