<!-- Generated by IcoMoon.io -->
<svg version="1.1" xmlns="http://www.w3.org/2000/svg" width="32" height="32" viewBox="0 0 32 32">
<title>ic_my-account</title>
<path d="M15.93 15.93c4.37 0 8.035-3.524 8.035-8.035s-3.524-7.894-8.035-7.894-7.894 3.524-7.894 8.035 3.524 7.894 7.894 7.894zM15.93 20.018c-5.216 0-15.93 2.678-15.93 7.894v3.947h32v-3.947c0-5.216-10.714-7.894-16.070-7.894z"></path>
<path d="M15.93 0c-8.74 0-15.93 7.189-15.93 15.93s7.189 15.93 15.93 15.93c8.881 0 15.93-7.189 15.93-15.93s-7.048-15.93-15.93-15.93zM24.247 15.084c0 5.075-3.524 9.727-8.176 10.855-4.652-1.128-8.176-5.921-8.176-10.855v-5.498l8.176-3.665 8.176 3.665v5.498z"></path>
<path d="M16.070 8.035l-6.344 2.819v5.216h6.344v8.176c3.383-0.987 5.921-4.37 6.344-8.176h-6.344v-8.035z"></path>
</svg>
