<!-- Generated by IcoMoon.io -->
<svg version="1.1" xmlns="http://www.w3.org/2000/svg" width="32" height="32" viewBox="0 0 32 32">
<title>ic_shopping-basket</title>
<path d="M9.586 25.656c-1.692 0-3.242 1.41-3.242 3.242 0 1.692 1.41 3.242 3.242 3.242s3.242-1.41 3.242-3.242c0-1.833-1.41-3.242-3.242-3.242zM0 0v3.242h3.242l5.78 12.123-2.115 3.947c-0.282 0.423-0.423 0.987-0.423 1.551 0 1.692 1.41 3.242 3.242 3.242h19.172v-3.242h-18.608c-0.282 0-0.423-0.141-0.423-0.423v-0.141l1.41-2.537h11.841c1.269 0 2.256-0.705 2.819-1.692l5.921-10.432c0.141-0.282 0.141-0.564 0.141-0.705 0-0.846-0.705-1.551-1.551-1.551h-23.683l-1.551-3.383c0 0-5.216 0-5.216 0zM25.656 25.656c-1.692 0-3.242 1.41-3.242 3.242 0 1.692 1.41 3.242 3.242 3.242 1.692 0 3.242-1.41 3.242-3.242-0.141-1.833-1.551-3.242-3.242-3.242z"></path>
</svg>
