<!-- Generated by IcoMoon.io -->
<svg version="1.1" xmlns="http://www.w3.org/2000/svg" width="32" height="32" viewBox="0 0 32 32">
<title>ic_search</title>
<path d="M9.163 20.159h1.41l0.564-0.564c-1.833-2.115-2.819-4.793-2.819-7.753-0.141-6.485 5.216-11.841 11.841-11.841s11.841 5.357 11.841 11.841c0 6.626-5.357 11.841-11.841 11.841-2.96 0-5.639-1.128-7.753-2.819l-0.564 0.564v1.41l-9.163 9.163-2.678-2.678 9.163-9.163zM20.159 20.159c4.511 0 8.176-3.665 8.176-8.176s-3.665-8.176-8.176-8.176c-4.511 0-8.176 3.665-8.176 8.176-0.141 4.511 3.524 8.176 8.176 8.176z"></path>
</svg>
