<!-- Generated by IcoMoon.io -->
<svg version="1.1" xmlns="http://www.w3.org/2000/svg" width="32" height="32" viewBox="0 0 32 32">
<title>ic_support</title>
<path d="M32 19.454c0-2.115-0.987-3.947-2.537-5.216v-1.551c0-7.048-5.921-12.687-13.11-12.687s-13.11 5.639-13.11 12.687v1.269c-1.974 1.128-3.242 3.242-3.242 5.639 0 3.665 3.101 6.626 6.767 6.626v-13.251c-0.423 0-0.987 0-1.41 0.141v-0.423c0-5.78 4.934-10.573 10.996-10.573s10.996 4.793 10.996 10.573v0.564c-0.705-0.141-1.41-0.282-2.115-0.282v13.11c0.423 0 0.846 0 1.269-0.141-0.705 1.41-2.256 3.524-5.639 4.088-0.282-0.282-0.564-0.423-0.846-0.423h-2.115c-0.705 0-1.128 0.564-1.128 1.128s0.564 1.128 1.128 1.128h2.115c0.564 0 0.987-0.282 1.128-0.705 4.652-0.846 6.344-4.37 6.907-5.78 2.256-0.987 3.947-3.242 3.947-5.921v0z"></path>
</svg>
