<?xml version="1.0" encoding="utf-8"?>
<!-- Generator: Adobe Illustrator 22.0.1, SVG Export Plug-In . SVG Version: 6.00 Build 0)  -->
<svg version="1.0" xmlns="http://www.w3.org/2000/svg" xmlns:xlink="http://www.w3.org/1999/xlink" x="0px" y="0px"
	 viewBox="0 0 22.7 22.7" style="enable-background:new 0 0 22.7 22.7;" xml:space="preserve">
<style type="text/css">
	.st0{display:none;}
	.st1{display:inline;fill:#363636;}
	.st2{display:inline;}
	.st3{fill:#363636;}
	.st4{display:inline;fill:#FFFFFF;}
</style>
<g id="Layer_7" class="st0">
</g>
<g id="ic_x5F_my-account" class="st0">
	<path class="st1" d="M11.3,11.3c3.1,0,5.7-2.5,5.7-5.7S14.5,0,11.3,0S5.7,2.5,5.7,5.7S8.2,11.3,11.3,11.3z M11.3,14.2
		C7.6,14.2,0,16.1,0,19.8v2.8h22.7v-2.8C22.7,16.1,15.1,14.2,11.3,14.2z"/>
</g>
<g id="ic_x5F_my-data" class="st0">
	<rect x="0" y="1.9" class="st1" width="3.8" height="3.8"/>
	<rect x="0" y="9.5" class="st1" width="3.8" height="3.8"/>
	<rect x="0" y="17.1" class="st1" width="3.8" height="3.8"/>
	<rect x="7.6" y="1.9" class="st1" width="15.1" height="3.8"/>
	<rect x="7.6" y="9.5" class="st1" width="15.1" height="3.8"/>
	<rect x="7.6" y="17.1" class="st1" width="15.1" height="3.8"/>
</g>
<g id="ic_x5F_my-orders" class="st0">
	<path class="st1" d="M11.3,0C5.1,0,0,5.1,0,11.3s5.1,11.3,11.3,11.3c6.3,0,11.3-5.1,11.3-11.3S17.6,0,11.3,0z M16.1,18.2l-4.8-2.9
		l-4.8,2.9l1.3-5.5L3.6,9l5.6-0.5l2.2-5.1l2.2,5.1L19.1,9l-4.2,3.7L16.1,18.2z"/>
</g>
<g id="ic_x5F_my-returns" class="st0">
	<path class="st1" d="M5,10.1l-5,5l5,5v-3.8h8.8v-2.5H5V10.1z M22.7,7.6l-5-5v3.8H8.8v2.5h8.8v3.8L22.7,7.6z"/>
</g>
<g id="ic_x5F_contact" class="st0">
	<path class="st1" d="M4.6,9.8c1.8,3.6,4.7,6.5,8.3,8.3l2.8-2.8c0.3-0.3,0.8-0.5,1.3-0.3c1.4,0.5,2.9,0.7,4.5,0.7
		c0.7,0,1.3,0.6,1.3,1.3v4.4c0,0.7-0.6,1.3-1.3,1.3C9.6,22.7,0,13.1,0,1.3C0,0.6,0.6,0,1.3,0h4.4c0.7,0,1.3,0.6,1.3,1.3
		c0,1.6,0.3,3.1,0.7,4.5c0.1,0.4,0,0.9-0.3,1.3C7.3,7.1,4.6,9.8,4.6,9.8z"/>
</g>
<g id="ic_x5F_logout" class="st0">
	<g class="st2">
		<polygon class="st3" points="18.5,0 8.5,0 8.5,5.7 8.5,5.7 11.3,5.7 11.3,2.8 19.8,2.8 19.8,19.8 11.3,19.8 11.3,17 8.5,17 
			8.5,17 8.5,22.7 18.5,22.7 22.7,22.7 22.7,18.4 22.7,4.3 22.7,0 		"/>
		<polygon class="st3" points="14.2,12.8 14.2,9.9 5.7,9.9 5.7,7.1 0,11.4 5.7,15.6 5.7,12.8 		"/>
	</g>
</g>
<g id="ic_x5F_account" class="st0">
	<path class="st1" d="M11.4,0C5.1,0,0,5.1,0,11.3s5.1,11.3,11.3,11.3s11.3-5.1,11.3-11.3S17.6,0,11.4,0z M11.4,3.4
		c1.9,0,3.4,1.5,3.4,3.4s-1.5,3.4-3.4,3.4S8,8.7,8,6.8S9.4,3.4,11.4,3.4z M11.4,19.5c-2.8,0-5.3-1.5-6.8-3.6c0-2.3,4.5-3.5,6.8-3.5
		s6.8,1.2,6.8,3.5C16.7,18,14.2,19.5,11.4,19.5z"/>
</g>
<g id="ic_x5F_shopping_basket" class="st0">
	<path class="st1" d="M6.8,18.2c-1.2,0-2.3,1-2.3,2.3c0,1.2,1,2.3,2.3,2.3s2.3-1,2.3-2.3C9.1,19.2,8.1,18.2,6.8,18.2z M0,0v2.3h2.3
		l4.1,8.6l-1.5,2.8c-0.2,0.3-0.3,0.7-0.3,1.1c0,1.2,1,2.3,2.3,2.3h13.6v-2.3H7.3c-0.2,0-0.3-0.1-0.3-0.3l0-0.1l1-1.8h8.4
		c0.9,0,1.6-0.5,2-1.2L22.6,4c0.1-0.2,0.1-0.4,0.1-0.5c0-0.6-0.5-1.1-1.1-1.1H4.8L3.7,0C3.7,0,0,0,0,0z M18.2,18.2
		c-1.2,0-2.3,1-2.3,2.3c0,1.2,1,2.3,2.3,2.3c1.2,0,2.3-1,2.3-2.3C20.4,19.2,19.4,18.2,18.2,18.2z"/>
</g>
<g id="ic_x5F_help" class="st0">
	<ellipse class="st4" cx="11.3" cy="11.3" rx="9.9" ry="9.9"/>
	<path class="st1" d="M11.4,0C5.1,0,0,5.1,0,11.3s5.1,11.3,11.3,11.3s11.3-5.1,11.3-11.3S17.6,0,11.4,0z M12.5,19.3h-2.3V17h2.3
		V19.3z M14.8,10.5l-1,1c-0.8,0.8-1.3,1.5-1.3,3.2h-2.3v-0.6c0-1.2,0.5-2.4,1.3-3.2L13,9.5c0.4-0.4,0.7-1,0.7-1.6
		c0-1.2-1-2.3-2.3-2.3s-2.3,1-2.3,2.3H6.8c0-2.5,2-4.5,4.5-4.5s4.5,2,4.5,4.5C15.9,8.9,15.5,9.9,14.8,10.5z"/>
</g>
<g id="ic_x5F_login_data" class="st0">
	<path class="st1" d="M11.4,0L2.1,4.1v6.2c0,5.7,4,11.1,9.3,12.4c5.3-1.3,9.3-6.6,9.3-12.4V4.1L11.4,0z M11.4,11.3h7.2
		c-0.5,4.2-3.4,8-7.2,9.2V11.3l-7.2,0V5.5l7.2-3.2C11.4,2.3,11.4,11.3,11.4,11.3z"/>
</g>
<g id="Layer_12">
	<g>
		<path class="st3" d="M11.3,0C5.1,0,0,5.1,0,11.3s5.1,11.3,11.3,11.3c6.3,0,11.3-5.1,11.3-11.3S17.6,0,11.3,0z M17.2,10.7
			c0,3.6-2.5,6.9-5.8,7.7c-3.3-0.8-5.8-4.2-5.8-7.7V6.8l5.8-2.6l5.8,2.6V10.7z"/>
		<path class="st3" d="M11.4,5.7l-4.5,2v3.7h4.5v5.8c2.4-0.7,4.2-3.1,4.5-5.8h-4.5V5.7z"/>
	</g>
</g>
<g id="ic_x5F_confirmation02" class="st0">
	<path class="st1" d="M11.3,0C5.1,0,0,5.1,0,11.3s5.1,11.3,11.3,11.3c6.3,0,11.3-5.1,11.3-11.3S17.6,0,11.3,0z M8.8,17.7
		c-0.7,0-1.3-0.6-1.3-1.3s0.6-1.3,1.3-1.3c0.7,0,1.3,0.6,1.3,1.3S9.5,17.7,8.8,17.7z M15.2,17.7c-0.7,0-1.3-0.6-1.3-1.3
		s0.6-1.3,1.3-1.3c0.7,0,1.3,0.6,1.3,1.3S15.9,17.7,15.2,17.7z M17.7,7.2l-2.3,4.1c-0.2,0.4-0.6,0.7-1.1,0.7H9.5l-0.6,1l0,0.1
		c0,0.1,0.1,0.2,0.2,0.2h7.4v1.3H8.8c-0.7,0-1.3-0.6-1.3-1.3c0-0.2,0.1-0.4,0.2-0.6l0.9-1.6L6.3,6.2H5V5h2.1l0.6,1.3h9.4
		c0.4,0,0.6,0.3,0.6,0.6C17.7,7,17.7,7.1,17.7,7.2z"/>
</g>
<g id="ic_x5F_confirmation03" class="st0">
	<path class="st1" d="M11.3,0C5.1,0,0,5.1,0,11.3s5.1,11.3,11.3,11.3c6.3,0,11.3-5.1,11.3-11.3S17.6,0,11.3,0z M11.4,4.3
		c1.8,0,3.2,1.4,3.2,3.2s-1.4,3.2-3.2,3.2S8.2,9.2,8.2,7.4S9.6,4.3,11.4,4.3z M17.7,17H5v-1.6c0-2.1,4.2-3.2,6.4-3.2
		s6.4,1.1,6.4,3.2V17z"/>
</g>
</svg>
