<?xml version="1.0" encoding="UTF-8"?><!DOCTYPE svg PUBLIC "-//W3C//DTD SVG 1.1//EN" "http://www.w3.org/Graphics/SVG/1.1/DTD/svg11.dtd"><svg xmlns="http://www.w3.org/2000/svg"><symbol id="icon-arrow-right" viewBox="0 0 1024 1024"><path d="M992.625 500.131l31.694-31.799-31.715-31.819a58.18 58.18 0 0 0-16.611-16.666L571.588 14.102c-22.565-22.659-59.177-22.659-81.719 0-22.565 22.646-22.565 59.362 0 82.007l313.158 314.224H58.103c-31.93 0-57.783 25.986-57.783 57.995 0 32.036 25.852 57.995 57.783 57.995h744.929L489.871 840.55c-22.565 22.672-22.565 59.365 0 82.009 11.283 11.336 26.093 16.992 40.873 16.992 14.778 0 29.561-5.656 40.844-16.992L975.976 516.83a58.173 58.173 0 0 0 16.649-16.702z"/></symbol><symbol id="icon-email" viewBox="0 0 1024 1024"><path d="M511.097 0C229.362 0 0 229.362 0 511.097 0 794.638 229.362 1024 511.097 1024S1024 794.638 1024 511.097C1024 229.362 794.638 0 511.097 0zm294.377 702.533H218.525V357.588l292.571 216.72 292.571-216.72v344.945zm-294.377-162.54l-292.571-216.72h585.143l-292.571 216.72z"/></symbol><symbol id="icon-github" viewBox="0 0 32 32"><path d="M16 0C7.164 0 0 7.35 0 16.407c0 7.25 4.586 13.393 10.943 15.564.1.021.186.029.271.029.593 0 .821-.436.821-.814 0-.393-.014-1.421-.021-2.793a7.3 7.3 0 0 1-1.614.193c-3.079 0-3.779-2.393-3.779-2.393-.729-1.893-1.779-2.4-1.779-2.4-1.393-.979-.007-1.007.1-1.007h.007c1.607.143 2.45 1.7 2.45 1.7.8 1.4 1.871 1.793 2.829 1.793.75 0 1.429-.243 1.829-.429.143-1.057.557-1.779 1.014-2.193-3.55-.414-7.286-1.821-7.286-8.107 0-1.793.621-3.257 1.643-4.4-.164-.414-.714-2.086.157-4.343 0 0 .114-.036.357-.036.579 0 1.886.221 4.043 1.721a14.997 14.997 0 0 1 4.007-.55 15.03 15.03 0 0 1 4.007.55c2.157-1.5 3.464-1.721 4.043-1.721.243 0 .357.036.357.036.871 2.257.321 3.929.157 4.343 1.021 1.15 1.643 2.614 1.643 4.4 0 6.3-3.743 7.686-7.307 8.093.571.507 1.086 1.507 1.086 3.036 0 2.193-.021 3.964-.021 4.5 0 .386.221.821.814.821.086 0 .186-.007.286-.029C27.421 29.8 32 23.65 32 16.407 32 7.35 24.836 0 16 0z"/></symbol><symbol id="icon-monkey" viewBox="0 0 32 32"><path d="M29.712 12.635c-.47 0-.907.228-1.27.618-1.702-3.224-5.105-5.667-9.247-6.519l-.769-1.661s.082-.034.313-1.575c-1.135.517-1.486.951-1.486.951s.074-.754.794-2.159c-3.22 1.186-3.775 3.343-3.775 3.343s-.041.017.131-1.548c-1.436.953-2.072 2.08-2.347 2.795-3.825.956-6.95 3.284-8.574 6.309-.35-.352-.765-.555-1.209-.555-1.259 0-2.28 1.634-2.28 3.649s1.021 3.649 2.28 3.649c.067 0 .133-.005.199-.014 1.111 5.429 6.721 9.559 13.474 9.559 6.759 0 12.373-4.138 13.477-9.575.095.019.192.029.29.029 1.259 0 2.28-1.634 2.28-3.649s-1.021-3.649-2.28-3.649zM2.35 16.55c-.145.942-.11 1.822.063 2.49-.85-.018-1.536-1.019-1.536-2.253 0-1.245.698-2.255 1.559-2.255.167 0 .328.039.479.11a6.972 6.972 0 0 0-.566 1.908zm13.773 11.414c-5.934 0-10.743-2.768-10.743-6.182 0-.645.172-1.268.491-1.852a5.084 5.084 0 0 1-.74-2.637c0-3.001 2.64-5.434 5.897-5.434 1.879 0 3.552.81 4.632 2.071 1.08-1.261 2.753-2.071 4.632-2.071 3.257 0 5.897 2.433 5.897 5.434 0 .649-.124 1.272-.35 1.849.659.801 1.027 1.696 1.027 2.641 0 3.414-4.81 6.182-10.743 6.182zm13.448-8.925c.174-.668.209-1.547.064-2.49a6.938 6.938 0 0 0-.566-1.908 1.12 1.12 0 0 1 .479-.11c.861 0 1.559 1.009 1.559 2.255 0 1.234-.686 2.235-1.536 2.253z"/><path d="M15.854 17.942a4.008 4.008 0 1 0-8.016 0 4.008 4.008 0 0 0 8.016 0zm-5.944-.818a.92.92 0 1 1 0-1.84.92.92 0 0 1 0 1.84zm11.647 7.717a.395.395 0 0 0-.76-.151 11.49 11.49 0 0 1-4.582 1.069v-2.223a1.232 1.232 0 1 0-.538.008v2.219a11.593 11.593 0 0 1-4.264-.882.394.394 0 1 0-.458.583l-.042.065c1.5.645 3.192 1.01 4.983 1.01 2.036 0 3.942-.471 5.585-1.289l-.072-.101a.392.392 0 0 0 .15-.308zm-1.343-10.906a4.008 4.008 0 1 0 0 8.016 4.008 4.008 0 0 0 0-8.016zm-1.672 3.189a.92.92 0 1 1 0-1.84.92.92 0 0 1 0 1.84z"/></symbol><symbol id="icon-phone" viewBox="0 0 1024 1024"><path d="M512 0C229.225 0 0 229.225 0 512s229.225 512 512 512 512-229.225 512-512S794.775 0 512 0zm309.941 707.012c-15.902 43.821-55.206 72.523-98.455 75.535v.512c-270.607 0-452.427-180.856-452.427-453.512h.753c3.524-42.797 31.895-81.528 75.113-97.28 58.699-21.414 81.107 24.425 102.46 83.275s33.611 108.393-25.088 129.807c-6.867 2.5-13.884 4.156-20.872 5.24 23.974 98.936 101.798 176.64 200.614 200.222 1.084-7.168 2.771-14.306 5.331-21.353 21.353-58.85 70.807-46.562 129.506-25.148s104.418 43.851 83.064 102.701z"/></symbol><symbol id="icon-qq" viewBox="0 0 32 32"><path d="M16 0C7.163 0 0 7.163 0 16s7.163 16 16 16 16-7.163 16-16S24.837 0 16 0zm9.039 20.902c-.679.583-1.561-1.917-1.688-1.532-.309.935-.453 1.56-1.364 2.578-.049.055 1.052.452 1.364 1.301.299.813.879 2.102-2.921 2.507-2.23.237-3.842-1.188-4.002-1.175-.298.026-.165 0-.485 0-.262 0-.279.019-.526 0-.068-.005-.809 1.175-4.124 1.175-2.569 0-3.235-1.617-2.718-2.507s1.379-1.148 1.257-1.289a6.908 6.908 0 0 1-1.257-2.105 5.141 5.141 0 0 1-.152-.485c-.094-.358-.809 2.1-1.577 1.532s-.699-2.013-.202-3.396c.501-1.394 1.765-2.737 1.779-3.033.05-1.103-.109-1.286 0-1.576.242-.649.537-.4.537-.737 0-4.242 3.152-7.68 7.04-7.68s7.04 3.439 7.04 7.68c0 .162.423 0 .625.737.041.152.07.74.021 1.576-.023.402 1.071.891 1.637 3.033s0 3.154-.283 3.396z"/></symbol><symbol id="icon-scroll-top" viewBox="0 0 1024 1024"><path d="M1024 512l-89.6 89.6L576 243.2V1024H448V243.2L89.6 601.6 0 512 512 0z"/></symbol><symbol id="icon-share" viewBox="0 0 1024 1024"><path d="M665.599 326.401c42.419 0 76.8-34.38 76.8-76.8s-34.38-76.8-76.8-76.8-76.8 34.38-76.8 76.8a76.842 76.842 0 0 0 3.264 22.106L340.89 462.261c-10.189-4.98-21.594-7.859-33.69-7.859-42.419 0-76.8 34.38-76.8 76.8s34.38 76.8 76.8 76.8c17.459 0 33.497-5.888 46.4-15.693l237.491 163.789c-1.446 5.875-2.291 11.981-2.291 18.304 0 42.419 34.38 76.8 76.8 76.8s76.8-34.38 76.8-76.8-34.38-76.8-76.8-76.8c-17.446 0-33.497 5.888-46.387 15.693L381.709 549.506c1.446-5.875 2.291-11.981 2.291-18.304 0-11.456-2.573-22.272-7.065-32.025L622.31 313.04c12.327 8.423 27.226 13.363 43.289 13.363z"/><path d="M74.624 657.459C59.084 610.7 51.2 561.767 51.2 512c0-254.092 206.707-460.799 460.799-460.799 49.766 0 98.701 7.885 145.459 23.424 13.453 4.442 27.917-2.803 32.371-16.217s-2.816-27.917-16.23-32.371C621.619 8.757 567.244.002 511.999.002 229.682.002 0 229.685 0 512.001c0 55.245 8.755 109.619 26.035 161.613 3.572 10.739 13.568 17.536 24.281 17.536a25.38 25.38 0 0 0 8.077-1.319c13.414-4.454 20.684-18.944 16.23-32.371zM872.281 148.212c-10.022-9.945-26.253-9.869-36.199.179s-9.869 26.253.179 36.199c88.052 87.207 136.537 203.481 136.537 327.411 0 254.092-206.707 460.799-460.799 460.799-160.652 0-307.173-81.625-391.948-218.355-7.449-12.006-23.219-15.718-35.238-8.269s-15.718 23.232-8.269 35.252c94.17 151.884 256.959 242.573 435.455 242.573 282.317 0 511.999-229.683 511.999-511.999 0-137.689-53.875-266.892-151.718-363.788z"/></symbol><symbol id="icon-slider-next" viewBox="0 0 1024 1024"><path d="M640 128v256H0v128h640v256l384-323.84L640 128z"/></symbol><symbol id="icon-slider-prev" viewBox="0 0 1024 1024"><path d="M384 128L0 451.84 384 768V512h640V384H384V128z"/></symbol><symbol id="icon-twitter" viewBox="0 0 32 32"><path d="M16 32c8.837 0 16-7.163 16-16S24.837 0 16 0 0 7.163 0 16s7.163 16 16 16zm-4.703-20.098c3.075 1.553 5.675 1.464 5.675 1.464s-.985-3.434 2.061-4.958c3.047-1.523 5.143 1.045 5.143 1.045s.531-.146.928-.291c.395-.146.968-.407.968-.407l-.938 1.675 1.446-.153s-.178.261-.757.792c-.578.53-.817.803-.817.803s.207 4.135-1.971 7.318-4.992 5.094-9.079 5.496c-4.088.401-6.751-1.255-6.751-1.255s1.789-.102 2.928-.537c1.138-.435 2.777-1.583 2.777-1.583s-2.329-.718-3.166-1.523c-.837-.807-1.046-1.285-1.046-1.285l2.299-.03s-2.419-1.285-3.106-2.299c-.687-1.016-.776-2.001-.776-2.001l1.768.713s-1.47-1.998-1.679-3.551.27-2.39.27-2.39.746 1.403 3.823 2.957z"/></symbol><symbol id="icon-wechat" viewBox="0 0 32 32"><path d="M21.76 17.28a.64.64 0 1 0-.001-1.281.64.64 0 0 0 .001 1.281zm-3.84 0a.64.64 0 1 0-.001-1.281.64.64 0 0 0 .001 1.281zm-2.24-4.48a.96.96 0 1 0 0-1.92.96.96 0 0 0 0 1.92zm-5.12 0a.96.96 0 1 0 0-1.92.96.96 0 0 0 0 1.92zM16 32c8.837 0 16-7.163 16-16S24.837 0 16 0 0 7.163 0 16s7.163 16 16 16zm-1.884-12.907a7.243 7.243 0 0 1-3.387-.341c-.073-.026-.334-.105-.475 0-.318.236-.744.727-.744.727s.156-.357.209-.878c.024-.238-.34-.405-.412-.454-1.383-.935-2.267-2.48-2.267-4.085 0-2.817 2.722-5.101 6.08-5.101 3.135 0 5.716 1.991 6.044 4.548-2.885.398-5.085 2.498-5.085 5.029.001.188.012.374.037.557zm.336 1.204a8.573 8.573 0 0 1-1.332.104 8.382 8.382 0 0 1-2.581-.402c-.404-.13-1.88 1.415-2.247 1.227-.218-.111.659-1.938.456-2.068-1.814-1.159-2.99-3.019-2.99-5.118 0-3.513 3.295-6.36 7.36-6.36 3.833 0 6.981 2.532 7.328 5.765 3.224.126 5.792 2.357 5.792 5.091 0 1.698-.99 3.201-2.513 4.128-.287.174.622 1.645.299 1.776-.198.081-1.615-1.164-1.825-1.102a7.116 7.116 0 0 1-2.041.295c-2.619-.001-4.852-1.39-5.707-3.336z"/></symbol><symbol id="icon-weibo" viewBox="0 0 32 32"><path d="M16 0C7.164 0 0 7.163 0 16s7.164 16 16 16 16-7.163 16-16S24.836 0 16 0zm-1.6 24.32c-5.479 0-9.92-2.865-9.92-6.399s6.652-9.115 9.196-9.115c1.067 0 3.161.795 1.696 3.315-.103.176 3.304-1.465 5.166-.386s0 2.814 0 3.007 3.739.193 3.739 3.179c0 3.535-4.399 6.4-9.877 6.4zm7.796-13.087c-.617-.732-1.72-.561-1.72-.561a.609.609 0 0 1-.619-.526c-.004.031-.018.059-.018.091v-.178c0 .031.014.058.018.088a.744.744 0 0 1 .617-.629s1.335-.365 2.492.676.683 2.763.683 2.763c-.05.35-.392.63-.748.63h-.063c-.356 0-.564-.274-.466-.613 0-.001.44-1.007-.177-1.739zm4.386 2.213c-.044.487-.469.884-.953.938.036.004.07.011.107.011h-.218c.037 0 .074-.007.111-.011a.804.804 0 0 1-.717-.939s.522-2.019-.75-3.845-4.007-1.511-4.007-1.511a.943.943 0 0 1-.945-.835c-.004.034-.01.066-.01.101v-.2c0 .034.007.066.01.1a.965.965 0 0 1 .948-.861s2.847-.287 4.967 1.717 1.457 5.335 1.457 5.335z"/><path d="M13.44 17.92a.64.64 0 1 0 1.281-.001.64.64 0 0 0-1.281.001zM12.603 20.02c.219-.184.363-.505.363-.87 0-.566-.344-1.024-.769-1.024-.15 0-.29.057-.409.157-.216.181-.36.502-.36.868 0 .566.344 1.024.769 1.024.15 0 .29-.057.409-.157z"/><path d="M13.501 14.12c-3.5.492-6.078 2.735-5.758 5.01s3.416 3.721 6.917 3.229c3.5-.492 6.078-2.735 5.759-5.01s-3.417-3.721-6.917-3.229zm.511 7.62c-2.082.405-4.043-.674-4.38-2.408s1.077-3.469 3.159-3.874c2.082-.405 4.043.673 4.38 2.408s-1.077 3.469-3.159 3.874z"/></symbol><symbol id="icon-ic_account" viewBox="0 0 32 32"><title>ic_account</title><path d="M16.07 0C7.189 0 0 7.189 0 15.93s7.189 15.93 15.93 15.93 15.93-7.189 15.93-15.93S24.812 0 16.071 0zm0 4.793c2.678 0 4.793 2.115 4.793 4.793s-2.115 4.793-4.793 4.793-4.793-2.115-4.793-4.793 1.974-4.793 4.793-4.793zm0 22.696c-3.947 0-7.471-2.115-9.586-5.075 0-3.242 6.344-4.934 9.586-4.934s9.586 1.692 9.586 4.934c-2.115 2.96-5.639 5.075-9.586 5.075z"/></symbol><symbol id="icon-ic_call" viewBox="0 0 32 32"><title>ic_call</title><path d="M16.07 0C7.189 0 0 7.189 0 15.93c0 8.881 7.189 15.93 15.93 15.93 8.881 0 15.93-7.189 15.93-15.93C32.001 7.19 24.812 0 16.071 0zm8.6 23.401a.964.964 0 0 1-.987.987c-9.022 0-16.352-7.33-16.352-16.352 0-.564.423-.987.987-.987h3.383c.564 0 .987.423.987.987 0 1.269.141 2.396.564 3.383.141.282 0 .705-.282.987l-2.115 2.115a15.293 15.293 0 0 0 6.344 6.344l2.115-2.115c.282-.282.705-.282.987-.282 1.128.423 2.256.564 3.383.564.564 0 .987.423.987.987v3.383z"/></symbol><symbol id="icon-ic_confirmation01" viewBox="0 0 32 32"><title>ic_confirmation01</title><path d="M15.93 0C7.19 0 0 7.189 0 15.93s7.189 15.93 15.93 15.93c8.881 0 15.93-7.189 15.93-15.93S24.812 0 15.93 0zm8.317 15.084c0 5.075-3.524 9.727-8.176 10.855-4.652-1.128-8.176-5.921-8.176-10.855V9.586l8.176-3.665 8.176 3.665v5.498z"/><path d="M16.07 8.035l-6.344 2.819v5.216h6.344v8.176c3.383-.987 5.921-4.37 6.344-8.176H16.07V8.035z"/></symbol><symbol id="icon-ic_confirmation02" viewBox="0 0 32 32"><title>ic_confirmation02</title><path d="M15.93 0C7.19 0 0 7.189 0 15.93s7.189 15.93 15.93 15.93c8.881 0 15.93-7.189 15.93-15.93S24.812 0 15.93 0zm-3.525 24.952c-.987 0-1.833-.846-1.833-1.833s.846-1.833 1.833-1.833 1.833.846 1.833 1.833-.846 1.833-1.833 1.833zm9.022 0c-.987 0-1.833-.846-1.833-1.833s.846-1.833 1.833-1.833 1.833.846 1.833 1.833-.846 1.833-1.833 1.833zm3.525-14.802l-3.242 5.78c-.282.564-.846.987-1.551.987h-6.767l-.846 1.41v.141c0 .141.141.282.282.282H23.26v1.833H12.405c-.987 0-1.833-.846-1.833-1.833 0-.282.141-.564.282-.846l1.269-2.255-3.242-6.908H7.048V7.049h2.96l.846 1.833h13.251c.564 0 .846.423.846.846v.423z"/></symbol><symbol id="icon-ic_confirmation03" viewBox="0 0 32 32"><title>ic_confirmation03</title><path d="M15.93 0C7.19 0 0 7.189 0 15.93s7.189 15.93 15.93 15.93c8.881 0 15.93-7.189 15.93-15.93S24.812 0 15.93 0zm.14 6.062c2.537 0 4.511 1.974 4.511 4.511s-1.974 4.511-4.511 4.511-4.511-2.115-4.511-4.652 1.974-4.37 4.511-4.37zm8.882 17.903H7.049v-2.256c0-2.96 5.921-4.511 9.022-4.511s9.022 1.551 9.022 4.511v2.256z"/></symbol><symbol id="icon-ic_contact" viewBox="0 0 32 32"><title>ic_contact</title><path d="M6.485 13.815a26.104 26.104 0 0 0 11.7 11.7l3.947-3.947c.423-.423 1.128-.705 1.833-.423 1.974.705 4.088.987 6.344.987.987 0 1.833.846 1.833 1.833v6.203c0 .987-.846 1.833-1.833 1.833C13.534 32.001.001 18.468.001 1.834.001.847.847.001 1.834.001h6.203c.987 0 1.833.846 1.833 1.833 0 2.255.423 4.37.987 6.344.141.564 0 1.269-.423 1.833-.141 0-3.947 3.806-3.947 3.806z"/></symbol><symbol id="icon-ic_facebook" viewBox="0 0 32 32"><title>ic_facebook</title><path d="M16.07 0C7.189 0 0 7.189 0 15.93c0 8.881 7.189 15.93 15.93 15.93 8.881 0 15.93-7.189 15.93-15.93C32.001 7.19 24.812 0 16.071 0zm3.948 16.07H17.34v9.445h-3.806V16.07H11.56v-3.383h1.833v-2.255c0-1.551.705-3.947 3.947-3.947h2.96v3.242h-2.115c-.282 0-.846.141-.846.846v2.115h2.96l-.282 3.383z"/></symbol><symbol id="icon-ic_help" viewBox="0 0 32 32"><title>ic_help</title><path fill="#fff" d="M29.885 15.93c0 7.708-6.248 13.956-13.956 13.956S1.973 23.638 1.973 15.93c0-7.708 6.248-13.956 13.956-13.956S29.885 8.222 29.885 15.93z"/><path fill="#363636" d="M16.07 0C7.189 0 0 7.189 0 15.93s7.189 15.93 15.93 15.93 15.93-7.189 15.93-15.93S24.812 0 16.071 0zm1.551 27.207h-3.242v-3.242h3.242v3.242zm3.242-12.405l-1.41 1.41c-1.128 1.128-1.833 2.115-1.833 4.511h-3.242v-.846c0-1.692.705-3.383 1.833-4.511l2.115-1.974c.564-.564.987-1.41.987-2.255 0-1.692-1.41-3.242-3.242-3.242s-3.242 1.41-3.242 3.242H9.587c0-3.524 2.819-6.344 6.344-6.344s6.344 2.819 6.344 6.344c.141 1.41-.423 2.819-1.41 3.665z"/></symbol><symbol id="icon-ic_login-data" viewBox="0 0 32 32"><title>ic_login-data</title><path d="M16.07 0L2.96 5.78v8.74c0 8.035 5.639 15.648 13.11 17.48 7.471-1.833 13.11-9.304 13.11-17.48V5.78L16.07 0zm0 15.93h10.15c-.705 5.921-4.793 11.278-10.15 12.969V15.93H5.92V7.754l10.15-4.511V15.93z"/></symbol><symbol id="icon-ic_logout" viewBox="0 0 32 32"><title>ic_logout</title><path d="M26.079 0H11.982v8.035h3.947V3.947h11.982v23.965H15.929v-3.947h-3.947V32H32V0z"/><path d="M20.018 18.044v-4.088H8.036v-3.947L.001 16.071l8.035 5.921v-3.947z"/></symbol><symbol id="icon-ic_mail" viewBox="0 0 32 32"><title>ic_mail</title><path d="M9.445 10.855v1.692l6.485 4.088 6.626-4.229v-1.551l-6.485 4.088-6.626-4.088z"/><path d="M16.07 0C7.189 0 0 7.189 0 15.93c0 8.881 7.189 15.93 15.93 15.93s15.93-7.189 15.93-15.93C32.001 7.19 24.812 0 16.071 0zm8.036 20.581c0 .846-.705 1.692-1.692 1.692H9.445c-.846 0-1.692-.705-1.692-1.692v-9.727c0-.846.705-1.692 1.551-1.692h13.251c.846 0 1.692.705 1.692 1.692v9.727z"/></symbol><symbol id="icon-ic_my-account" viewBox="0 0 32 32"><title>ic_my-account</title><path d="M15.93 15.93c4.37 0 8.035-3.524 8.035-8.035S20.441.001 15.93.001 8.036 3.525 8.036 8.036s3.524 7.894 7.894 7.894zm0 4.088C10.714 20.018 0 22.696 0 27.912v3.947h32v-3.947c0-5.216-10.714-7.894-16.07-7.894z"/><path d="M15.93 0C7.19 0 0 7.189 0 15.93s7.189 15.93 15.93 15.93c8.881 0 15.93-7.189 15.93-15.93S24.812 0 15.93 0zm8.317 15.084c0 5.075-3.524 9.727-8.176 10.855-4.652-1.128-8.176-5.921-8.176-10.855V9.586l8.176-3.665 8.176 3.665v5.498z"/><path d="M16.07 8.035l-6.344 2.819v5.216h6.344v8.176c3.383-.987 5.921-4.37 6.344-8.176H16.07V8.035z"/></symbol><symbol id="icon-ic_my-data" viewBox="0 0 32 32"><title>ic_my-data</title><path d="M0 2.678h5.357v5.357H0V2.678zM0 13.392h5.357v5.357H0v-5.357zM0 24.106h5.357v5.357H0v-5.357zM10.714 2.678H32v5.357H10.714V2.678zM10.714 13.392H32v5.357H10.714v-5.357zM10.714 24.106H32v5.357H10.714v-5.357z"/></symbol><symbol id="icon-ic_my-orders" viewBox="0 0 32 32"><title>ic_my-orders</title><path d="M15.93 0C7.19 0 0 7.189 0 15.93s7.189 15.93 15.93 15.93c8.881 0 15.93-7.189 15.93-15.93S24.812 0 15.93 0zm6.766 25.656l-6.767-4.088-6.767 4.088 1.833-7.753-5.921-5.216 7.894-.705 3.101-7.189 3.101 7.189 7.753.705-5.921 5.216 1.692 7.753z"/></symbol><symbol id="icon-ic_my-returns" viewBox="0 0 32 32"><title>ic_my-returns</title><path d="M7.048 14.238L0 21.286l7.048 7.048v-5.357h12.405v-3.524H7.048v-5.216zM32 10.714l-7.048-7.048v5.357H12.406v3.524h12.405v5.357L32 10.715z"/></symbol><symbol id="icon-ic_search" viewBox="0 0 32 32"><title>ic_search</title><path d="M9.163 20.159h1.41l.564-.564c-1.833-2.115-2.819-4.793-2.819-7.753C8.177 5.357 13.534.001 20.159.001S32 5.358 32 11.842c0 6.626-5.357 11.841-11.841 11.841-2.96 0-5.639-1.128-7.753-2.819l-.564.564v1.41l-9.163 9.163-2.678-2.678 9.163-9.163zm10.996 0c4.511 0 8.176-3.665 8.176-8.176s-3.665-8.176-8.176-8.176-8.176 3.665-8.176 8.176c-.141 4.511 3.524 8.176 8.176 8.176z"/></symbol><symbol id="icon-ic_shopping-basket" viewBox="0 0 32 32"><title>ic_shopping-basket</title><path d="M9.586 25.656c-1.692 0-3.242 1.41-3.242 3.242 0 1.692 1.41 3.242 3.242 3.242s3.242-1.41 3.242-3.242c0-1.833-1.41-3.242-3.242-3.242zM0 0v3.242h3.242l5.78 12.123-2.115 3.947c-.282.423-.423.987-.423 1.551 0 1.692 1.41 3.242 3.242 3.242h19.172v-3.242H10.29c-.282 0-.423-.141-.423-.423v-.141l1.41-2.537h11.841c1.269 0 2.256-.705 2.819-1.692l5.921-10.432c.141-.282.141-.564.141-.705 0-.846-.705-1.551-1.551-1.551H6.765L5.214-.001H-.002zm25.656 25.656c-1.692 0-3.242 1.41-3.242 3.242 0 1.692 1.41 3.242 3.242 3.242 1.692 0 3.242-1.41 3.242-3.242-.141-1.833-1.551-3.242-3.242-3.242z"/></symbol><symbol id="icon-ic_support" viewBox="0 0 32 32"><title>ic_support</title><path d="M32 19.454c0-2.115-.987-3.947-2.537-5.216v-1.551C29.463 5.639 23.542 0 16.353 0S3.243 5.639 3.243 12.687v1.269C1.269 15.084.001 17.198.001 19.595c0 3.665 3.101 6.626 6.767 6.626V12.97c-.423 0-.987 0-1.41.141v-.423c0-5.78 4.934-10.573 10.996-10.573S27.35 6.908 27.35 12.688v.564c-.705-.141-1.41-.282-2.115-.282v13.11c.423 0 .846 0 1.269-.141-.705 1.41-2.256 3.524-5.639 4.088-.282-.282-.564-.423-.846-.423h-2.115c-.705 0-1.128.564-1.128 1.128s.564 1.128 1.128 1.128h2.115c.564 0 .987-.282 1.128-.705 4.652-.846 6.344-4.37 6.907-5.78 2.256-.987 3.947-3.242 3.947-5.921z"/></symbol></svg>