<svg xmlns="http://www.w3.org/2000/svg">
<symbol id="icon-arrow-right" viewBox="0 0 1024 1024">  <path fill="#000" d="M992.625 500.131l31.694-31.799-31.715-31.819c-4.344-6.629-10.005-12.308-16.611-16.666l-404.405-405.745c-22.565-22.659-59.177-22.659-81.719 0-22.565 22.646-22.565 59.362 0 82.007l313.158 314.224h-744.924c-31.93 0-57.783 25.986-57.783 57.995 0 32.036 25.852 57.995 57.783 57.995h744.929l-313.161 314.227c-22.565 22.672-22.565 59.365 0 82.009 11.283 11.336 26.093 16.992 40.873 16.992 14.778 0 29.561-5.656 40.844-16.992l404.388-405.729c6.624-4.364 12.297-10.056 16.649-16.702z"/> </symbol>
<symbol id="icon-email" viewBox="0 0 1024 1024">  <path fill="#000" d="M511.097 0c-281.735 0-511.097 229.362-511.097 511.097 0 283.541 229.362 512.903 511.097 512.903s512.903-229.362 512.903-512.903c0-281.735-229.362-511.097-512.903-511.097zM805.474 702.533h-586.949v-344.945l292.571 216.72 292.571-216.72v344.945zM511.097 539.993l-292.571-216.72h585.143l-292.571 216.72z"/> </symbol>
<symbol id="icon-github" viewBox="0 0 32 32"> <path d="M16 0c-8.836 0-16 7.35-16 16.407 0 7.25 4.586 13.393 10.943 15.564 0.1 0.021 0.186 0.029 0.271 0.029 0.593 0 0.821-0.436 0.821-0.814 0-0.393-0.014-1.421-0.021-2.793-0.6 0.136-1.136 0.193-1.614 0.193-3.079 0-3.779-2.393-3.779-2.393-0.729-1.893-1.779-2.4-1.779-2.4-1.393-0.979-0.007-1.007 0.1-1.007 0.007 0 0.007 0 0.007 0 1.607 0.143 2.45 1.7 2.45 1.7 0.8 1.4 1.871 1.793 2.829 1.793 0.75 0 1.429-0.243 1.829-0.429 0.143-1.057 0.557-1.779 1.014-2.193-3.55-0.414-7.286-1.821-7.286-8.107 0-1.793 0.621-3.257 1.643-4.4-0.164-0.414-0.714-2.086 0.157-4.343 0 0 0.114-0.036 0.357-0.036 0.579 0 1.886 0.221 4.043 1.721 1.279-0.364 2.643-0.543 4.007-0.55 1.357 0.007 2.729 0.186 4.007 0.55 2.157-1.5 3.464-1.721 4.043-1.721 0.243 0 0.357 0.036 0.357 0.036 0.871 2.257 0.321 3.929 0.157 4.343 1.021 1.15 1.643 2.614 1.643 4.4 0 6.3-3.743 7.686-7.307 8.093 0.571 0.507 1.086 1.507 1.086 3.036 0 2.193-0.021 3.964-0.021 4.5 0 0.386 0.221 0.821 0.814 0.821 0.086 0 0.186-0.007 0.286-0.029 6.364-2.171 10.943-8.321 10.943-15.564 0-9.057-7.164-16.407-16-16.407z"/> </symbol>
<symbol id="icon-monkey" viewBox="0 0 32 32"> <path d="M29.712 12.635c-0.47 0-0.907 0.228-1.27 0.618-1.702-3.224-5.105-5.667-9.247-6.519l-0.769-1.661c0 0 0.082-0.034 0.313-1.575-1.135 0.517-1.486 0.951-1.486 0.951s0.074-0.754 0.794-2.159c-3.22 1.186-3.775 3.343-3.775 3.343s-0.041 0.017 0.131-1.548c-1.436 0.953-2.072 2.080-2.347 2.795-3.825 0.956-6.95 3.284-8.574 6.309-0.35-0.352-0.765-0.555-1.209-0.555-1.259 0-2.28 1.634-2.28 3.649s1.021 3.649 2.28 3.649c0.067 0 0.133-0.005 0.199-0.014 1.111 5.429 6.721 9.559 13.474 9.559 6.759 0 12.373-4.138 13.477-9.575 0.095 0.019 0.192 0.029 0.29 0.029 1.259 0 2.28-1.634 2.28-3.649s-1.021-3.649-2.28-3.649zM2.35 16.55c-0.145 0.942-0.11 1.822 0.063 2.49-0.85-0.018-1.536-1.019-1.536-2.253 0-1.245 0.698-2.255 1.559-2.255 0.167 0 0.328 0.039 0.479 0.11-0.253 0.53-0.454 1.186-0.566 1.908zM16.123 27.964c-5.934 0-10.743-2.768-10.743-6.182 0-0.645 0.172-1.268 0.491-1.852-0.471-0.781-0.74-1.68-0.74-2.637 0-3.001 2.64-5.434 5.897-5.434 1.879 0 3.552 0.81 4.632 2.071 1.080-1.261 2.753-2.071 4.632-2.071 3.257 0 5.897 2.433 5.897 5.434 0 0.649-0.124 1.272-0.35 1.849 0.659 0.801 1.027 1.696 1.027 2.641-0 3.414-4.81 6.182-10.743 6.182zM29.571 19.039c0.174-0.668 0.209-1.547 0.064-2.49-0.111-0.722-0.313-1.378-0.566-1.908 0.151-0.071 0.312-0.11 0.479-0.11 0.861 0 1.559 1.009 1.559 2.255 0 1.234-0.686 2.235-1.536 2.253z"/> <path d="M15.854 17.942c0-2.213-1.794-4.008-4.008-4.008s-4.008 1.794-4.008 4.008c0 2.213 1.794 4.008 4.008 4.008s4.008-1.794 4.008-4.008zM9.91 17.124c-0.508 0-0.92-0.412-0.92-0.92s0.412-0.92 0.92-0.92c0.508 0 0.92 0.412 0.92 0.92s-0.412 0.92-0.92 0.92zM21.557 24.841c0-0.218-0.177-0.395-0.395-0.395-0.165 0-0.306 0.101-0.365 0.244-1.369 0.643-2.925 1.025-4.582 1.069v-2.223c0.543-0.129 0.948-0.615 0.948-1.198 0-0.681-0.552-1.232-1.232-1.232s-1.232 0.552-1.232 1.232c0 0.593 0.419 1.088 0.978 1.206v2.219c-1.527-0.028-2.971-0.341-4.264-0.882-0.070-0.111-0.193-0.185-0.334-0.185-0.218 0-0.395 0.177-0.395 0.395 0 0.174 0.114 0.321 0.271 0.373l-0.042 0.065c1.5 0.645 3.192 1.010 4.983 1.010 2.036 0 3.942-0.471 5.585-1.289l-0.072-0.101c0.091-0.072 0.15-0.183 0.15-0.308zM20.214 13.935c-2.213 0-4.008 1.794-4.008 4.008s1.794 4.008 4.008 4.008c2.213 0 4.008-1.794 4.008-4.008s-1.794-4.008-4.008-4.008zM18.542 17.124c-0.508 0-0.92-0.412-0.92-0.92s0.412-0.92 0.92-0.92c0.508 0 0.92 0.412 0.92 0.92s-0.412 0.92-0.92 0.92z"/> </symbol>
<symbol id="icon-phone" viewBox="0 0 1024 1024">  <path fill="#000" d="M512 0c-282.775 0-512 229.225-512 512s229.225 512 512 512 512-229.225 512-512-229.225-512-512-512zM821.941 707.012c-15.902 43.821-55.206 72.523-98.455 75.535v0.512c-270.607 0-452.427-180.856-452.427-453.512h0.753c3.524-42.797 31.895-81.528 75.113-97.28 58.699-21.414 81.107 24.425 102.46 83.275s33.611 108.393-25.088 129.807c-6.867 2.5-13.884 4.156-20.872 5.24 23.974 98.936 101.798 176.64 200.614 200.222 1.084-7.168 2.771-14.306 5.331-21.353 21.353-58.85 70.807-46.562 129.506-25.148s104.418 43.851 83.064 102.701z"/> </symbol>
<symbol id="icon-qq" viewBox="0 0 32 32"> <path d="M16 0c-8.837 0-16 7.163-16 16s7.163 16 16 16 16-7.163 16-16-7.163-16-16-16zM25.039 20.902c-0.679 0.583-1.561-1.917-1.688-1.532-0.309 0.935-0.453 1.56-1.364 2.578-0.049 0.055 1.052 0.452 1.364 1.301 0.299 0.813 0.879 2.102-2.921 2.507-2.23 0.237-3.842-1.188-4.002-1.175-0.298 0.026-0.165 0-0.485 0-0.262 0-0.279 0.019-0.526 0-0.068-0.005-0.809 1.175-4.124 1.175-2.569 0-3.235-1.617-2.718-2.507s1.379-1.148 1.257-1.289c-0.599-0.693-1.011-1.435-1.257-2.105-0.061-0.167-0.112-0.329-0.152-0.485-0.094-0.358-0.809 2.1-1.577 1.532s-0.699-2.013-0.202-3.396c0.501-1.394 1.765-2.737 1.779-3.033 0.050-1.103-0.109-1.286 0-1.576 0.242-0.649 0.537-0.4 0.537-0.737 0-4.242 3.152-7.68 7.040-7.68s7.040 3.439 7.040 7.68c0 0.162 0.423 0 0.625 0.737 0.041 0.152 0.070 0.74 0.021 1.576-0.023 0.402 1.071 0.891 1.637 3.033s0 3.154-0.283 3.396z"/> </symbol>
<symbol id="icon-scroll-top" viewBox="0 0 1024 1024">  <path fill="#000" d="M1024 512l-89.6 89.6-358.4-358.4v780.8h-128v-780.8l-358.4 358.4-89.6-89.6 512-512z"/> </symbol>
<symbol id="icon-share" viewBox="0 0 1024 1024">  <path fill="#000" d="M665.599 326.401c42.419 0 76.8-34.38 76.8-76.8s-34.38-76.8-76.8-76.8-76.8 34.38-76.8 76.8c0 7.692 1.165 15.104 3.264 22.106l-251.173 190.554c-10.189-4.98-21.594-7.859-33.69-7.859-42.419 0-76.8 34.38-76.8 76.8s34.38 76.8 76.8 76.8c17.459 0 33.497-5.888 46.4-15.693l237.491 163.789c-1.446 5.875-2.291 11.981-2.291 18.304 0 42.419 34.38 76.8 76.8 76.8s76.8-34.38 76.8-76.8-34.38-76.8-76.8-76.8c-17.446 0-33.497 5.888-46.387 15.693l-237.504-163.789c1.446-5.875 2.291-11.981 2.291-18.304 0-11.456-2.573-22.272-7.065-32.025l245.375-186.137c12.327 8.423 27.226 13.363 43.289 13.363z"/> <path fill="#000" d="M74.624 657.459c-15.54-46.759-23.424-95.692-23.424-145.459 0-254.092 206.707-460.799 460.799-460.799 49.766 0 98.701 7.885 145.459 23.424 13.453 4.442 27.917-2.803 32.371-16.217s-2.816-27.917-16.23-32.371c-51.98-17.28-106.355-26.035-161.6-26.035-282.317 0-511.999 229.683-511.999 511.999 0 55.245 8.755 109.619 26.035 161.613 3.572 10.739 13.568 17.536 24.281 17.536 2.675 0 5.402-0.422 8.077-1.319 13.414-4.454 20.684-18.944 16.23-32.371z"/> <path fill="#000" d="M872.281 148.212c-10.022-9.945-26.253-9.869-36.199 0.179s-9.869 26.253 0.179 36.199c88.052 87.207 136.537 203.481 136.537 327.411 0 254.092-206.707 460.799-460.799 460.799-160.652 0-307.173-81.625-391.948-218.355-7.449-12.006-23.219-15.718-35.238-8.269s-15.718 23.232-8.269 35.252c94.17 151.884 256.959 242.573 435.455 242.573 282.317 0 511.999-229.683 511.999-511.999 0-137.689-53.875-266.892-151.718-363.788z"/> </symbol>
<symbol id="icon-slider-next" viewBox="0 0 1024 1024">  <path fill="#000" d="M640 128v256h-640v128h640v256l384-323.84-384-316.16z"/> </symbol>
<symbol id="icon-slider-prev" viewBox="0 0 1024 1024">  <path fill="#000" d="M384 128l-384 323.84 384 316.16v-256h640v-128h-640v-256z"/> </symbol>
<symbol id="icon-twitter" viewBox="0 0 32 32"> <path d="M16 32c8.837 0 16-7.163 16-16s-7.163-16-16-16c-8.837 0-16 7.163-16 16s7.163 16 16 16v0zM11.297 11.902c3.075 1.553 5.675 1.464 5.675 1.464s-0.985-3.434 2.061-4.958c3.047-1.523 5.143 1.045 5.143 1.045s0.531-0.146 0.928-0.291c0.395-0.146 0.968-0.407 0.968-0.407l-0.938 1.675 1.446-0.153c0 0-0.178 0.261-0.757 0.792-0.578 0.53-0.817 0.803-0.817 0.803s0.207 4.135-1.971 7.318c-2.178 3.183-4.992 5.094-9.079 5.496-4.088 0.401-6.751-1.255-6.751-1.255s1.789-0.102 2.928-0.537c1.138-0.435 2.777-1.583 2.777-1.583s-2.329-0.718-3.166-1.523c-0.837-0.807-1.046-1.285-1.046-1.285l2.299-0.030c0 0-2.419-1.285-3.106-2.299-0.687-1.016-0.776-2.001-0.776-2.001l1.768 0.713c0 0-1.47-1.998-1.679-3.551s0.27-2.39 0.27-2.39c0 0 0.746 1.403 3.823 2.957v0z"/> </symbol>
<symbol id="icon-wechat" viewBox="0 0 32 32"> <path d="M21.76 17.28c0.353 0 0.64-0.287 0.64-0.64s-0.287-0.64-0.64-0.64-0.64 0.287-0.64 0.64 0.287 0.64 0.64 0.64zM17.92 17.28c0.353 0 0.64-0.287 0.64-0.64s-0.287-0.64-0.64-0.64-0.64 0.287-0.64 0.64 0.287 0.64 0.64 0.64zM15.68 12.8c0.53 0 0.96-0.43 0.96-0.96s-0.43-0.96-0.96-0.96c-0.53 0-0.96 0.43-0.96 0.96s0.43 0.96 0.96 0.96zM10.56 12.8c0.53 0 0.96-0.43 0.96-0.96s-0.43-0.96-0.96-0.96c-0.53 0-0.96 0.43-0.96 0.96s0.43 0.96 0.96 0.96zM16 32c8.837 0 16-7.163 16-16s-7.163-16-16-16-16 7.163-16 16 7.163 16 16 16zM14.116 19.093c-0.324 0.045-0.657 0.068-0.996 0.068-0.849 0-1.657-0.146-2.391-0.409-0.073-0.026-0.334-0.105-0.475 0-0.318 0.236-0.744 0.727-0.744 0.727s0.156-0.357 0.209-0.878c0.024-0.238-0.34-0.405-0.412-0.454-1.383-0.935-2.267-2.48-2.267-4.085 0-2.817 2.722-5.101 6.080-5.101 3.135 0 5.716 1.991 6.044 4.548-2.885 0.398-5.085 2.498-5.085 5.029 0.001 0.188 0.012 0.374 0.037 0.557zM14.452 20.297c-0.432 0.068-0.878 0.104-1.332 0.104-0.908 0-1.777-0.142-2.581-0.402-0.404-0.13-1.88 1.415-2.247 1.227-0.218-0.111 0.659-1.938 0.456-2.068-1.814-1.159-2.99-3.019-2.99-5.118 0-3.513 3.295-6.36 7.36-6.36 3.833 0 6.981 2.532 7.328 5.765 3.224 0.126 5.792 2.357 5.792 5.091 0 1.698-0.99 3.201-2.513 4.128-0.287 0.174 0.622 1.645 0.299 1.776-0.198 0.081-1.615-1.164-1.825-1.102-0.638 0.191-1.325 0.295-2.041 0.295-2.619-0.001-4.852-1.39-5.707-3.336z"/> </symbol>
<symbol id="icon-weibo" viewBox="0 0 32 32"> <path d="M16 0c-8.836 0-16 7.163-16 16s7.164 16 16 16 16-7.163 16-16-7.164-16-16-16zM14.4 24.32c-5.479 0-9.92-2.865-9.92-6.399s6.652-9.115 9.196-9.115c1.067 0 3.161 0.795 1.696 3.315-0.103 0.176 3.304-1.465 5.166-0.386s0 2.814 0 3.007 3.739 0.193 3.739 3.179c0 3.535-4.399 6.4-9.877 6.4zM22.196 11.233c-0.617-0.732-1.72-0.561-1.72-0.561-0.323 0.003-0.574-0.222-0.619-0.526-0.004 0.031-0.018 0.059-0.018 0.091v-0.178c0 0.031 0.014 0.058 0.018 0.088 0.044-0.312 0.298-0.587 0.617-0.629 0 0 1.335-0.365 2.492 0.676s0.683 2.763 0.683 2.763c-0.050 0.35-0.392 0.63-0.748 0.63h-0.063c-0.356 0-0.564-0.274-0.466-0.613 0-0.001 0.44-1.007-0.177-1.739zM26.582 13.446c-0.044 0.487-0.469 0.884-0.953 0.938 0.036 0.004 0.070 0.011 0.107 0.011h-0.218c0.037 0 0.074-0.007 0.111-0.011-0.469-0.055-0.785-0.452-0.717-0.939 0 0 0.522-2.019-0.75-3.845s-4.007-1.511-4.007-1.511c-0.486-0.001-0.894-0.358-0.945-0.835-0.004 0.034-0.010 0.066-0.010 0.101v-0.2c0 0.034 0.007 0.066 0.010 0.1 0.052-0.477 0.453-0.857 0.948-0.861 0 0 2.847-0.287 4.967 1.717s1.457 5.335 1.457 5.335z"/> <path d="M13.44 17.92c0 0.353 0.287 0.64 0.64 0.64s0.64-0.287 0.64-0.64c0-0.353-0.287-0.64-0.64-0.64s-0.64 0.287-0.64 0.64z"/> <path d="M12.603 20.020c0.219-0.184 0.363-0.505 0.363-0.87 0-0.566-0.344-1.024-0.769-1.024-0.15 0-0.29 0.057-0.409 0.157-0.216 0.181-0.36 0.502-0.36 0.868 0 0.566 0.344 1.024 0.769 1.024 0.15 0 0.29-0.057 0.409-0.157z"/> <path d="M13.501 14.12c-3.5 0.492-6.078 2.735-5.758 5.010s3.416 3.721 6.917 3.229c3.5-0.492 6.078-2.735 5.759-5.010s-3.417-3.721-6.917-3.229zM14.012 21.74c-2.082 0.405-4.043-0.674-4.38-2.408s1.077-3.469 3.159-3.874c2.082-0.405 4.043 0.673 4.38 2.408s-1.077 3.469-3.159 3.874z"/> </symbol>
</svg>