<?xml version="1.0" encoding="utf-8"?>
<!-- Generated by IcoMoon.io -->
<!DOCTYPE svg PUBLIC "-//W3C//DTD SVG 1.1//EN" "http://www.w3.org/Graphics/SVG/1.1/DTD/svg11.dtd">
<svg version="1.1" xmlns="http://www.w3.org/2000/svg" xmlns:xlink="http://www.w3.org/1999/xlink" width="29" height="32" viewBox="0 0 29 32">
<path d="M23.066 16.094l-1.951-1.988-8.984 9.161-3.903-3.981-1.951 1.991 5.854 5.97 10.935-11.151zM25.771 3.416h-1.841v-2.604h-3.68v2.604h-11.046v-2.604h-3.682v2.604h-1.841c-2.045 0-3.665 1.689-3.665 3.753l-0.020 21.952c0 2.067 1.64 3.756 3.684 3.756h22.089c2.025 0 3.684-1.689 3.684-3.756v-21.952c0-2.064-1.659-3.753-3.684-3.753zM26.923 30.35h-24.468v-19.578h24.468v19.578z"></path>
</svg>
