<?xml version="1.0" encoding="utf-8"?>
<!-- Generator: Adobe Illustrator 19.0.0, SVG Export Plug-In . SVG Version: 6.00 Build 0)  -->
<svg version="1.1" id="图形" xmlns="http://www.w3.org/2000/svg" xmlns:xlink="http://www.w3.org/1999/xlink" x="0px" y="0px"
	 viewBox="678.7 150.8 338.3 505.8" enable-background="new 678.7 150.8 338.3 505.8" xml:space="preserve">
<polygon fill="#DF4835" points="1015.8,150.8 1015.8,289.3 847.8,419.8 679.8,289.3 679.8,150.8 "/>
<polygon opacity="0.2" fill="#FFFFFF" enable-background="new    " points="1015.8,150.8 1015.8,289.3 847.8,419.8 847.8,150.8 "/>
<path fill="#FFEA92" d="M864.4,322.7l16.1,9.3c5,2.9,10.8,4.4,16.6,4.4h18.6c11.9,0,22.8,6.3,28.8,16.6l9.3,16.1
	c2.9,5,7.1,9.2,12.2,12.2l16.1,9.3c10.3,5.9,16.6,16.9,16.6,28.8V438c0,5.8,1.5,11.6,4.4,16.6l9.3,16.1c5.9,10.3,5.9,22.9,0,33.2
	l-9.3,16.1c-2.9,5-4.4,10.8-4.4,16.6v18.6c0,11.9-6.3,22.8-16.6,28.8l-16.1,9.3c-5,2.9-9.2,7.1-12.2,12.2l-9.3,16.1
	c-5.9,10.3-16.9,16.6-28.8,16.6h-18.6c-5.8,0-11.6,1.5-16.6,4.4l-16.1,9.3c-10.3,5.9-22.9,5.9-33.2,0l-16.1-9.3
	c-5-2.9-10.8-4.4-16.6-4.4h-18.6c-11.9,0-22.8-6.3-28.8-16.6l-9.3-16.1c-2.9-5-7.1-9.2-12.2-12.2l-16.1-9.3
	c-10.3-5.9-16.6-16.9-16.6-28.8v-18.6c0-5.8-1.5-11.6-4.4-16.6l-9.3-16.1c-5.9-10.3-5.9-22.9,0-33.2l9.3-16.1
	c2.9-5,4.4-10.8,4.4-16.6v-18.6c0-11.9,6.3-22.8,16.6-28.8l16.1-9.3c5-2.9,9.2-7.1,12.2-12.2l9.3-16.1c5.9-10.3,16.9-16.6,28.8-16.6
	h18.6c5.8,0,11.6-1.5,16.6-4.4l16.1-9.3C841.5,316.7,854.2,316.7,864.4,322.7z"/>
<path opacity="0.3" fill="#DF4835" enable-background="new    " d="M864.4,322.7l16.1,9.3c5,2.9,10.8,4.4,16.6,4.4h18.6
	c11.9,0,22.8,6.3,28.8,16.6l9.3,16.1c2.9,5,7.1,9.2,12.2,12.2l16.1,9.3c10.3,5.9,16.6,16.9,16.6,28.8V438c0,5.8,1.5,11.6,4.4,16.6
	l9.3,16.1c5.9,10.3,5.9,22.9,0,33.2l-9.3,16.1c-2.9,5-4.4,10.8-4.4,16.6v18.6c0,11.9-6.3,22.8-16.6,28.8l-16.1,9.3
	c-5,2.9-9.2,7.1-12.2,12.2l-9.3,16.1c-5.9,10.3-16.9,16.6-28.8,16.6h-18.6c-5.8,0-11.6,1.5-16.6,4.4l-16.1,9.3
	c-10.3,5.9-22.9,5.9-33.2,0l-16.1-9.3c-5-2.9-10.8-4.4-16.6-4.4h-18.6c-11.9,0-22.8-6.3-28.8-16.6l-9.3-16.1
	c-2.9-5-7.1-9.2-12.2-12.2l-16.1-9.3c-10.3-5.9-16.6-16.9-16.6-28.8v-18.6c0-5.8-1.5-11.6-4.4-16.6l-9.3-16.1
	c-5.9-10.3-5.9-22.9,0-33.2l9.3-16.1c2.9-5,4.4-10.8,4.4-16.6v-18.6c0-11.9,6.3-22.8,16.6-28.8l16.1-9.3c5-2.9,9.2-7.1,12.2-12.2
	l9.3-16.1c5.9-10.3,16.9-16.6,28.8-16.6h18.6c5.8,0,11.6-1.5,16.6-4.4l16.1-9.3C841.5,316.7,854.2,316.7,864.4,322.7z"/>
<circle fill="#FFEA92" cx="847.8" cy="487.4" r="135.9"/>
<path opacity="0.25" fill="#FFFFFF" enable-background="new    " d="M751.7,583.5c-53.1-53.1-53.1-139.1,0-192.2s139.1-53.1,192.2,0
	"/>
</svg>
