<svg xmlns="http://www.w3.org/2000/svg" width="1024" height="1024" viewBox="0 0 1024 1024"><path d="M512 0C229.225 0 0 229.225 0 512s229.225 512 512 512 512-229.225 512-512S794.775 0 512 0zm309.941 707.012c-15.902 43.821-55.206 72.523-98.455 75.535v.512c-270.607 0-452.427-180.856-452.427-453.512h.753c3.524-42.797 31.895-81.528 75.113-97.28 58.699-21.414 81.107 24.425 102.46 83.275s33.611 108.393-25.088 129.807c-6.867 2.5-13.884 4.156-20.872 5.24 23.974 98.936 101.798 176.64 200.614 200.222 1.084-7.168 2.771-14.306 5.331-21.353 21.353-58.85 70.807-46.562 129.506-25.148s104.418 43.851 83.064 102.701z"/></svg>