<svg xmlns="http://www.w3.org/2000/svg" width="32" height="32" viewBox="0 0 32 32"><path d="M16 0C7.164 0 0 7.163 0 16s7.164 16 16 16 16-7.163 16-16S24.836 0 16 0zm-1.6 24.32c-5.479 0-9.92-2.865-9.92-6.399s6.652-9.115 9.196-9.115c1.067 0 3.161.795 1.696 3.315-.103.176 3.304-1.465 5.166-.386s0 2.814 0 3.007 3.739.193 3.739 3.179c0 3.535-4.399 6.4-9.877 6.4zm7.796-13.087c-.617-.732-1.72-.561-1.72-.561a.609.609 0 0 1-.619-.526c-.004.031-.018.059-.018.091v-.178c0 .031.014.058.018.088a.744.744 0 0 1 .617-.629s1.335-.365 2.492.676.683 2.763.683 2.763c-.05.35-.392.63-.748.63h-.063c-.356 0-.564-.274-.466-.613 0-.001.44-1.007-.177-1.739zm4.386 2.213c-.044.487-.469.884-.953.938.036.004.07.011.107.011h-.218c.037 0 .074-.007.111-.011a.804.804 0 0 1-.717-.939s.522-2.019-.75-3.845-4.007-1.511-4.007-1.511a.943.943 0 0 1-.945-.835c-.004.034-.01.066-.01.101v-.2c0 .034.007.066.01.1a.965.965 0 0 1 .948-.861s2.847-.287 4.967 1.717 1.457 5.335 1.457 5.335z"/><path d="M13.44 17.92a.64.64 0 1 0 1.281-.001.64.64 0 0 0-1.281.001zM12.603 20.02c.219-.184.363-.505.363-.87 0-.566-.344-1.024-.769-1.024-.15 0-.29.057-.409.157-.216.181-.36.502-.36.868 0 .566.344 1.024.769 1.024.15 0 .29-.057.409-.157z"/><path d="M13.501 14.12c-3.5.492-6.078 2.735-5.758 5.01s3.416 3.721 6.917 3.229c3.5-.492 6.078-2.735 5.759-5.01s-3.417-3.721-6.917-3.229zm.511 7.62c-2.082.405-4.043-.674-4.38-2.408s1.077-3.469 3.159-3.874c2.082-.405 4.043.673 4.38 2.408s-1.077 3.469-3.159 3.874z"/></svg>