<svg xmlns="http://www.w3.org/2000/svg" width="32" height="32" viewBox="0 0 32 32"><path d="M16 32c8.837 0 16-7.163 16-16S24.837 0 16 0 0 7.163 0 16s7.163 16 16 16zm-4.703-20.098c3.075 1.553 5.675 1.464 5.675 1.464s-.985-3.434 2.061-4.958c3.047-1.523 5.143 1.045 5.143 1.045s.531-.146.928-.291c.395-.146.968-.407.968-.407l-.938 1.675 1.446-.153s-.178.261-.757.792c-.578.53-.817.803-.817.803s.207 4.135-1.971 7.318-4.992 5.094-9.079 5.496c-4.088.401-6.751-1.255-6.751-1.255s1.789-.102 2.928-.537c1.138-.435 2.777-1.583 2.777-1.583s-2.329-.718-3.166-1.523c-.837-.807-1.046-1.285-1.046-1.285l2.299-.03s-2.419-1.285-3.106-2.299c-.687-1.016-.776-2.001-.776-2.001l1.768.713s-1.47-1.998-1.679-3.551.27-2.39.27-2.39.746 1.403 3.823 2.957z"/></svg>