<svg xmlns="http://www.w3.org/2000/svg" width="32" height="32" viewBox="0 0 32 32"><path d="M16 0C7.163 0 0 7.163 0 16s7.163 16 16 16 16-7.163 16-16S24.837 0 16 0zm9.039 20.902c-.679.583-1.561-1.917-1.688-1.532-.309.935-.453 1.56-1.364 2.578-.049.055 1.052.452 1.364 1.301.299.813.879 2.102-2.921 2.507-2.23.237-3.842-1.188-4.002-1.175-.298.026-.165 0-.485 0-.262 0-.279.019-.526 0-.068-.005-.809 1.175-4.124 1.175-2.569 0-3.235-1.617-2.718-2.507s1.379-1.148 1.257-1.289a6.908 6.908 0 0 1-1.257-2.105 5.141 5.141 0 0 1-.152-.485c-.094-.358-.809 2.1-1.577 1.532s-.699-2.013-.202-3.396c.501-1.394 1.765-2.737 1.779-3.033.05-1.103-.109-1.286 0-1.576.242-.649.537-.4.537-.737 0-4.242 3.152-7.68 7.04-7.68s7.04 3.439 7.04 7.68c0 .162.423 0 .625.737.041.152.07.74.021 1.576-.023.402 1.071.891 1.637 3.033s0 3.154-.283 3.396z"/></svg>