<svg xmlns="http://www.w3.org/2000/svg" width="32" height="32" viewBox="0 0 32 32"><path d="M29.712 12.635c-.47 0-.907.228-1.27.618-1.702-3.224-5.105-5.667-9.247-6.519l-.769-1.661s.082-.034.313-1.575c-1.135.517-1.486.951-1.486.951s.074-.754.794-2.159c-3.22 1.186-3.775 3.343-3.775 3.343s-.041.017.131-1.548c-1.436.953-2.072 2.08-2.347 2.795-3.825.956-6.95 3.284-8.574 6.309-.35-.352-.765-.555-1.209-.555-1.259 0-2.28 1.634-2.28 3.649s1.021 3.649 2.28 3.649c.067 0 .133-.005.199-.014 1.111 5.429 6.721 9.559 13.474 9.559 6.759 0 12.373-4.138 13.477-9.575.095.019.192.029.29.029 1.259 0 2.28-1.634 2.28-3.649s-1.021-3.649-2.28-3.649zM2.35 16.55c-.145.942-.11 1.822.063 2.49-.85-.018-1.536-1.019-1.536-2.253 0-1.245.698-2.255 1.559-2.255.167 0 .328.039.479.11a6.972 6.972 0 0 0-.566 1.908zm13.773 11.414c-5.934 0-10.743-2.768-10.743-6.182 0-.645.172-1.268.491-1.852a5.084 5.084 0 0 1-.74-2.637c0-3.001 2.64-5.434 5.897-5.434 1.879 0 3.552.81 4.632 2.071 1.08-1.261 2.753-2.071 4.632-2.071 3.257 0 5.897 2.433 5.897 5.434 0 .649-.124 1.272-.35 1.849.659.801 1.027 1.696 1.027 2.641 0 3.414-4.81 6.182-10.743 6.182zm13.448-8.925c.174-.668.209-1.547.064-2.49a6.938 6.938 0 0 0-.566-1.908 1.12 1.12 0 0 1 .479-.11c.861 0 1.559 1.009 1.559 2.255 0 1.234-.686 2.235-1.536 2.253z"/><path d="M15.854 17.942a4.008 4.008 0 1 0-8.016 0 4.008 4.008 0 0 0 8.016 0zm-5.944-.818a.92.92 0 1 1 0-1.84.92.92 0 0 1 0 1.84zm11.647 7.717a.395.395 0 0 0-.76-.151 11.49 11.49 0 0 1-4.582 1.069v-2.223a1.232 1.232 0 1 0-.538.008v2.219a11.593 11.593 0 0 1-4.264-.882.394.394 0 1 0-.458.583l-.042.065c1.5.645 3.192 1.01 4.983 1.01 2.036 0 3.942-.471 5.585-1.289l-.072-.101a.392.392 0 0 0 .15-.308zm-1.343-10.906a4.008 4.008 0 1 0 0 8.016 4.008 4.008 0 0 0 0-8.016zm-1.672 3.189a.92.92 0 1 1 0-1.84.92.92 0 0 1 0 1.84z"/></svg>