<svg xmlns="http://www.w3.org/2000/svg" width="32" height="32" viewBox="0 0 32 32"><path d="M16 0C7.164 0 0 7.35 0 16.407c0 7.25 4.586 13.393 10.943 15.564.1.021.186.029.271.029.593 0 .821-.436.821-.814 0-.393-.014-1.421-.021-2.793a7.3 7.3 0 0 1-1.614.193c-3.079 0-3.779-2.393-3.779-2.393-.729-1.893-1.779-2.4-1.779-2.4-1.393-.979-.007-1.007.1-1.007h.007c1.607.143 2.45 1.7 2.45 1.7.8 1.4 1.871 1.793 2.829 1.793.75 0 1.429-.243 1.829-.429.143-1.057.557-1.779 1.014-2.193-3.55-.414-7.286-1.821-7.286-8.107 0-1.793.621-3.257 1.643-4.4-.164-.414-.714-2.086.157-4.343 0 0 .114-.036.357-.036.579 0 1.886.221 4.043 1.721a14.997 14.997 0 0 1 4.007-.55 15.03 15.03 0 0 1 4.007.55c2.157-1.5 3.464-1.721 4.043-1.721.243 0 .357.036.357.036.871 2.257.321 3.929.157 4.343 1.021 1.15 1.643 2.614 1.643 4.4 0 6.3-3.743 7.686-7.307 8.093.571.507 1.086 1.507 1.086 3.036 0 2.193-.021 3.964-.021 4.5 0 .386.221.821.814.821.086 0 .186-.007.286-.029C27.421 29.8 32 23.65 32 16.407 32 7.35 24.836 0 16 0z"/></svg>