<svg xmlns="http://www.w3.org/2000/svg" width="1024" height="1024" viewBox="0 0 1024 1024"><path d="M992.625 500.131l31.694-31.799-31.715-31.819a58.18 58.18 0 0 0-16.611-16.666L571.588 14.102c-22.565-22.659-59.177-22.659-81.719 0-22.565 22.646-22.565 59.362 0 82.007l313.158 314.224H58.103c-31.93 0-57.783 25.986-57.783 57.995 0 32.036 25.852 57.995 57.783 57.995h744.929L489.871 840.55c-22.565 22.672-22.565 59.365 0 82.009 11.283 11.336 26.093 16.992 40.873 16.992 14.778 0 29.561-5.656 40.844-16.992L975.976 516.83a58.173 58.173 0 0 0 16.649-16.702z"/></svg>