<svg xmlns="http://www.w3.org/2000/svg" width="32" height="32" viewBox="0 0 32 32"><path d="M21.76 17.28a.64.64 0 1 0-.001-1.281.64.64 0 0 0 .001 1.281zm-3.84 0a.64.64 0 1 0-.001-1.281.64.64 0 0 0 .001 1.281zm-2.24-4.48a.96.96 0 1 0 0-1.92.96.96 0 0 0 0 1.92zm-5.12 0a.96.96 0 1 0 0-1.92.96.96 0 0 0 0 1.92zM16 32c8.837 0 16-7.163 16-16S24.837 0 16 0 0 7.163 0 16s7.163 16 16 16zm-1.884-12.907a7.243 7.243 0 0 1-3.387-.341c-.073-.026-.334-.105-.475 0-.318.236-.744.727-.744.727s.156-.357.209-.878c.024-.238-.34-.405-.412-.454-1.383-.935-2.267-2.48-2.267-4.085 0-2.817 2.722-5.101 6.08-5.101 3.135 0 5.716 1.991 6.044 4.548-2.885.398-5.085 2.498-5.085 5.029.001.188.012.374.037.557zm.336 1.204a8.573 8.573 0 0 1-1.332.104 8.382 8.382 0 0 1-2.581-.402c-.404-.13-1.88 1.415-2.247 1.227-.218-.111.659-1.938.456-2.068-1.814-1.159-2.99-3.019-2.99-5.118 0-3.513 3.295-6.36 7.36-6.36 3.833 0 6.981 2.532 7.328 5.765 3.224.126 5.792 2.357 5.792 5.091 0 1.698-.99 3.201-2.513 4.128-.287.174.622 1.645.299 1.776-.198.081-1.615-1.164-1.825-1.102a7.116 7.116 0 0 1-2.041.295c-2.619-.001-4.852-1.39-5.707-3.336z"/></svg>